<svg width="119" height="122" viewBox="0 0 119 122" fill="none" xmlns="http://www.w3.org/2000/svg">
<path d="M7.69782 63.4638H13.1783C15.3247 63.4638 17.3832 64.338 18.9009 65.8939C20.4186 67.4499 21.2713 69.5603 21.2713 71.7608V77.3818H15.7884C13.642 77.3818 11.5836 76.5077 10.0659 74.9517C8.54814 73.3957 7.6955 71.2854 7.6955 69.0849V63.4638H7.69782Z" fill="#A2E62E"/>
<path d="M26.7518 84.5303H21.2689V78.9092C21.2689 76.7087 22.1216 74.5984 23.6393 73.0424C25.157 71.4864 27.2155 70.6123 29.3619 70.6123H34.8447V76.2333C34.8447 77.3229 34.6354 78.4018 34.2287 79.4084C33.8219 80.4151 33.2258 81.3297 32.4743 82.1001C31.7228 82.8706 30.8307 83.4817 29.8488 83.8987C28.8669 84.3157 27.8145 84.5303 26.7518 84.5303ZM7.69782 88.4834H13.1783C15.3247 88.4834 17.3832 89.3575 18.9009 90.9135C20.4186 92.4695 21.2713 94.5798 21.2713 96.7803V102.401H15.7884C13.642 102.401 11.5836 101.527 10.0659 99.9712C8.54814 98.4153 7.6955 96.3049 7.6955 94.1044V88.4834H7.69782Z" fill="#A2E62E"/>
<path d="M26.7518 109.55H21.2689V103.929C21.2689 101.728 22.1216 99.6179 23.6393 98.0619C25.157 96.5059 27.2155 95.6318 29.3619 95.6318H34.8447V101.253C34.8447 102.342 34.6354 103.421 34.2286 104.428C33.8219 105.435 33.2258 106.349 32.4743 107.12C31.7228 107.89 30.8307 108.501 29.8488 108.918C28.8669 109.335 27.8145 109.55 26.7518 109.55ZM45.9266 63.4638H51.4094C53.5554 63.4645 55.6132 64.3389 57.1305 65.8948C58.6477 67.4507 59.5 69.5607 59.5 71.7608V77.3818H54.0172C51.8708 77.3818 49.8123 76.5077 48.2946 74.9517C46.7769 73.3957 45.9242 71.2854 45.9242 69.0849V63.4638H45.9266Z" fill="#A2E62E"/>
<path d="M64.9805 84.5303H59.5V78.9092C59.5 76.7087 60.3527 74.5984 61.8704 73.0424C63.3881 71.4864 65.4466 70.6123 67.5929 70.6123H73.0735V76.2333C73.0735 78.4338 72.2208 80.5442 70.7031 82.1001C69.1854 83.6561 67.1269 84.5303 64.9805 84.5303ZM45.9266 88.4834H51.4094C53.5554 88.484 55.6133 89.3584 57.1305 90.9143C58.6477 92.4702 59.5 94.5802 59.5 96.7803V102.401H54.0172C51.8708 102.401 49.8123 101.527 48.2946 99.9712C46.7769 98.4153 45.9243 96.3049 45.9243 94.1044V88.4834H45.9266Z" fill="#A2E62E"/>
<path d="M64.9805 109.55H59.5V103.929C59.5 101.728 60.3526 99.6179 61.8704 98.0619C63.3881 96.5059 65.4466 95.6318 67.5929 95.6318H73.0734V101.253C73.0734 103.453 72.2208 105.564 70.7031 107.12C69.1854 108.676 67.1269 109.55 64.9805 109.55ZM84.1553 63.4638H89.6381C91.7845 63.4638 93.843 64.338 95.3607 65.8939C96.8784 67.4499 97.7311 69.5603 97.7311 71.7608V77.3818H92.2459C90.0995 77.3818 88.0411 76.5077 86.5234 74.9517C85.0056 73.3957 84.153 71.2854 84.153 69.0849V63.4638H84.1553Z" fill="#A2E62E"/>
<path d="M103.209 84.5303H97.7265V78.9092C97.7265 76.7087 98.5791 74.5984 100.097 73.0424C101.615 71.4864 103.673 70.6123 105.819 70.6123H111.302V76.2333C111.302 78.4338 110.45 80.5442 108.932 82.1001C107.414 83.6561 105.356 84.5303 103.209 84.5303ZM84.1553 88.4834H89.6382C91.7846 88.4834 93.843 89.3575 95.3607 90.9135C96.8785 92.4695 97.7311 94.5798 97.7311 96.7803V102.401H92.2459C90.0996 102.401 88.0411 101.527 86.5234 99.9712C85.0057 98.4153 84.153 96.3049 84.153 94.1044V88.4834H84.1553Z" fill="#A2E62E"/>
<path d="M103.209 109.55H97.7264V103.929C97.7264 101.728 98.5791 99.6179 100.097 98.0619C101.615 96.5059 103.673 95.6318 105.819 95.6318H111.302V101.253C111.302 103.453 110.45 105.564 108.932 107.12C107.414 108.676 105.356 109.55 103.209 109.55Z" fill="#A2E62E"/>
<path d="M59.5 122C59.0377 122 58.5943 121.812 58.2674 121.477C57.9405 121.141 57.7568 120.687 57.7568 120.213V53.5299C57.7568 53.0559 57.9405 52.6013 58.2674 52.2662C58.5943 51.9311 59.0377 51.7428 59.5 51.7428C59.9623 51.7428 60.4057 51.9311 60.7326 52.2662C61.0595 52.6013 61.2432 53.0559 61.2432 53.5299V120.213C61.2432 120.687 61.0595 121.141 60.7326 121.477C60.4057 121.812 59.9623 122 59.5 122ZM97.7287 122C97.2664 122 96.823 121.812 96.4961 121.477C96.1692 121.141 95.9856 120.687 95.9856 120.213V55.9961C95.9856 55.5221 96.1692 55.0676 96.4961 54.7324C96.823 54.3973 97.2664 54.209 97.7287 54.209C98.1911 54.209 98.6344 54.3973 98.9613 54.7324C99.2883 55.0676 99.4719 55.5221 99.4719 55.9961V120.213C99.4719 120.687 99.2883 121.141 98.9613 121.477C98.6344 121.812 98.1911 122 97.7287 122ZM21.2712 122C20.8089 122 20.3655 121.812 20.0386 121.477C19.7117 121.141 19.5281 120.687 19.5281 120.213V55.9961C19.5281 55.5221 19.7117 55.0676 20.0386 54.7324C20.3655 54.3973 20.8089 54.209 21.2712 54.209C21.7336 54.209 22.1769 54.3973 22.5038 54.7324C22.8308 55.0676 23.0144 55.5221 23.0144 55.9961V120.213C23.0144 120.687 22.8308 121.141 22.5038 121.477C22.1769 121.812 21.7336 122 21.2712 122Z" fill="#97D729"/>
<path d="M38.4356 34.9034C38.2265 34.6881 38.1082 34.3972 38.106 34.0933C38.1038 33.7895 38.218 33.4969 38.424 33.2784C39.6514 31.9517 40.4241 30.2514 40.6253 28.4346C40.8265 26.6177 40.4452 24.7831 39.5391 23.2081C38.633 21.6332 37.2513 20.4034 35.603 19.7049C33.9548 19.0064 32.1294 18.8771 30.4031 19.3365C30.1166 19.4152 29.8113 19.3753 29.5531 19.2256C29.295 19.0759 29.1044 18.8282 29.0225 18.5359C28.513 16.787 27.4627 15.2553 26.0299 14.1717C24.5972 13.0882 22.8596 12.5115 21.0793 12.5288C19.299 12.546 17.5724 13.1561 16.1598 14.2671C14.7473 15.3782 13.7253 16.9299 13.248 18.6884C13.171 18.9814 12.985 19.2319 12.7299 19.386C12.4749 19.5401 12.1711 19.5856 11.8837 19.5129C10.1493 19.0829 8.32553 19.2441 6.68846 19.9719C5.05138 20.6997 3.69019 21.9545 2.81099 23.5464C1.93178 25.1383 1.58244 26.9805 1.81585 28.7941C2.04926 30.6078 2.85272 32.2941 4.10457 33.5977C4.31397 33.8127 4.43274 34.1034 4.43535 34.4073C4.43795 34.7111 4.3242 35.0039 4.11851 35.2227C2.89111 36.5494 2.11841 38.2497 1.91723 40.0666C1.71605 41.8834 2.09733 43.718 3.00343 45.293C3.90953 46.8679 5.29117 48.0976 6.93946 48.7962C8.58775 49.4947 10.4131 49.624 12.1394 49.1646C12.4259 49.0859 12.7312 49.1258 12.9894 49.2755C13.2475 49.4252 13.4381 49.6729 13.52 49.9652C14.0268 51.718 15.0766 53.254 16.5106 54.3408C17.9446 55.4276 19.6847 56.0062 21.4679 55.9889C23.2511 55.9717 24.9804 55.3596 26.3941 54.2453C27.8079 53.131 28.8292 51.575 29.3038 49.8127C29.3813 49.5195 29.5678 49.269 29.8232 49.115C30.0786 48.9609 30.3827 48.9154 30.6704 48.9882C32.4046 49.4152 34.2272 49.2516 35.8626 48.5221C37.498 47.7926 38.8572 46.5369 39.7345 44.945C40.6119 43.3531 40.9597 41.5115 40.7253 39.6989C40.491 37.8863 39.6872 36.2013 38.4356 34.8987V34.9034Z" fill="#FE3D97"/>
<path d="M21.0969 38.0011C23.5024 38.0011 25.4525 36.0019 25.4525 33.5357C25.4525 31.0695 23.5024 29.0703 21.0969 29.0703C18.6914 29.0703 16.7413 31.0695 16.7413 33.5357C16.7413 36.0019 18.6914 38.0011 21.0969 38.0011Z" fill="#FEDF30"/>
<path d="M114.895 34.9034C114.686 34.6884 114.567 34.3977 114.565 34.0938C114.562 33.79 114.676 33.4972 114.881 33.2784C116.109 31.9517 116.882 30.2514 117.083 28.4345C117.284 26.6177 116.903 24.7831 115.997 23.2081C115.09 21.6331 113.709 20.4034 112.061 19.7049C110.412 19.0064 108.587 18.8771 106.861 19.3365C106.574 19.4152 106.269 19.3753 106.011 19.2256C105.752 19.0759 105.562 18.8282 105.48 18.5359C104.973 16.7831 103.923 15.2471 102.489 14.1603C101.055 13.0735 99.3152 12.4949 97.532 12.5122C95.7488 12.5294 94.0196 13.1415 92.6059 14.2558C91.1921 15.3701 90.1708 16.9261 89.6962 18.6884C89.6187 18.9837 89.4308 19.2358 89.1733 19.3901C88.9158 19.5444 88.6093 19.5885 88.3203 19.5129C86.5878 19.0905 84.7683 19.2573 83.1363 19.9879C81.5043 20.7185 80.1483 21.9734 79.2728 23.5633C78.3973 25.1531 78.0499 26.9917 78.2828 28.8018C78.5158 30.6118 79.3166 32.295 80.5644 33.5977C80.7735 33.813 80.8918 34.1039 80.894 34.4078C80.8962 34.7116 80.782 35.0042 80.576 35.2227C79.3486 36.5494 78.5759 38.2497 78.3747 40.0665C78.1735 41.8834 78.5548 43.718 79.4609 45.293C80.367 46.8679 81.7487 48.0976 83.3969 48.7962C85.0452 49.4947 86.8705 49.624 88.5969 49.1646C88.8834 49.0859 89.1886 49.1258 89.4468 49.2755C89.705 49.4252 89.8956 49.6729 89.9775 49.9652C90.4836 51.719 91.5333 53.2561 92.9676 54.3437C94.4019 55.4313 96.1427 56.0103 97.9266 55.9931C99.7105 55.9759 101.44 55.3633 102.854 54.2482C104.269 53.133 105.29 51.576 105.764 49.8127C105.841 49.5197 106.027 49.2692 106.282 49.1151C106.537 48.961 106.84 48.9155 107.128 48.9882C108.862 49.416 110.685 49.2529 112.321 48.5237C113.957 47.7945 115.317 46.5388 116.195 44.9467C117.072 43.3545 117.42 41.5126 117.186 39.6997C116.951 37.8867 116.147 36.2014 114.895 34.8987V34.9034Z" fill="#FE3D97"/>
<path d="M97.5544 38.0011C99.96 38.0011 101.91 36.0019 101.91 33.5357C101.91 31.0695 99.96 29.0703 97.5544 29.0703C95.1489 29.0703 93.1989 31.0695 93.1989 33.5357C93.1989 36.0019 95.1489 38.0011 97.5544 38.0011Z" fill="#FEDF30"/>
<path d="M85.6126 28.6486C85.2949 28.3207 85.1149 27.8784 85.111 27.4162C85.107 26.9541 85.2796 26.5087 85.5917 26.1752C87.2955 24.3344 88.4279 22.0165 88.8456 19.5152C88.6772 19.5542 88.5026 19.5542 88.3342 19.5152C86.601 19.0892 84.7797 19.253 83.1453 19.9819C81.511 20.7109 80.1524 21.9653 79.2749 23.5557C78.3974 25.1462 78.0486 26.9862 78.2812 28.7978C78.5139 30.6095 79.3153 32.2942 80.5644 33.5977C80.7735 33.813 80.8918 34.1039 80.894 34.4078C80.8962 34.7116 80.782 35.0042 80.576 35.2227C79.6796 36.1915 79.0208 37.3649 78.654 38.6462C78.2872 39.9274 78.223 41.2798 78.4666 42.5915C78.7103 43.9033 79.2548 45.1368 80.0552 46.1902C80.8556 47.2436 81.8889 48.0867 83.0699 48.6499C84.704 47.6604 86.0968 46.3021 87.1422 44.6781C88.1877 43.0542 88.8585 41.2074 89.1036 39.278C89.3487 37.3485 89.1617 35.3871 88.5568 33.5429C87.9519 31.6986 86.945 30.0199 85.6126 28.6343V28.6486ZM39.6976 45.0185C40.596 43.4232 40.959 41.5698 40.7311 39.7427C40.5031 37.9155 39.6967 36.2155 38.4356 34.9034C38.2265 34.6881 38.1081 34.3972 38.106 34.0933C38.1038 33.7895 38.218 33.4969 38.424 33.2784C39.6514 31.9517 40.4241 30.2514 40.6253 28.4345C40.8264 26.6177 40.4451 24.7831 39.5391 23.2081C38.633 21.6332 37.2513 20.4034 35.603 19.7049C33.9547 19.0064 32.1294 18.8771 30.4031 19.3365C30.2398 19.38 30.0691 19.3857 29.9034 19.3532C30.2588 22.1161 31.4827 24.6849 33.3897 26.6708C33.7078 26.998 33.8881 27.44 33.8921 27.9019C33.896 28.3639 33.7231 28.809 33.4106 29.1418C32.1543 30.499 31.2033 32.122 30.6246 33.8966C30.0459 35.6712 29.8536 37.5542 30.0612 39.4132C30.2688 41.2722 30.8713 43.062 31.8262 44.6565C32.7812 46.2511 34.0653 47.6118 35.5884 48.6427C37.3206 47.9493 38.7701 46.6708 39.6976 45.0185Z" fill="#E41E7F"/>
<path d="M79.9252 28.4317C79.6762 28.176 79.535 27.8303 79.5319 27.4689C79.5289 27.1075 79.6643 26.7594 79.909 26.4993C81.3766 24.923 82.3024 22.8987 82.5455 20.7339C82.7887 18.569 82.336 16.382 81.2562 14.505C80.1764 12.628 78.5285 11.1636 76.5629 10.3343C74.5973 9.50494 72.4214 9.35602 70.3657 9.91012C70.025 10.0028 69.6624 9.95488 69.3556 9.77672C69.0489 9.59855 68.8225 9.30429 68.7248 8.95699C68.1269 6.86606 66.8797 5.0323 65.1727 3.73424C63.4656 2.43618 61.392 1.74475 59.2668 1.76497C57.1415 1.78519 55.0807 2.51595 53.3975 3.84627C51.7142 5.17658 50.5004 7.03375 49.9405 9.1357C49.8487 9.48514 49.6268 9.78371 49.3226 9.96728C49.0184 10.1508 48.6561 10.2048 48.3135 10.1174C46.2486 9.60343 44.0766 9.79422 42.1271 10.6608C40.1775 11.5274 38.5571 13.0225 37.5117 14.9191C36.4663 16.8157 36.0531 19.0101 36.3348 21.1694C36.6164 23.3286 37.5777 25.3346 39.0724 26.8829C39.3216 27.139 39.4629 27.4852 39.4659 27.8469C39.469 28.2087 39.3335 28.5572 39.0887 28.8177C37.6222 30.3942 36.6974 32.4182 36.4548 34.5825C36.2123 36.7467 36.6652 38.933 37.7448 40.8094C38.8244 42.6857 40.4717 44.1497 42.4366 44.9791C44.4015 45.8084 46.5767 45.9578 48.632 45.4045C48.9727 45.3112 49.3356 45.3588 49.6425 45.5371C49.9494 45.7153 50.1758 46.01 50.2729 46.3576C50.871 48.4485 52.1184 50.2821 53.8256 51.5799C55.5328 52.8778 57.6065 53.569 59.7318 53.5485C61.8571 53.528 63.9178 52.797 65.6009 51.4664C67.284 50.1359 68.4975 48.2786 69.0572 46.1765C69.1495 45.8275 69.3716 45.5295 69.6757 45.3464C69.9799 45.1634 70.3419 45.1098 70.6841 45.1972C72.7495 45.712 74.9223 45.5217 76.8725 44.6551C78.8227 43.7885 80.4437 42.293 81.4893 40.3958C82.5349 38.4985 82.9479 36.3033 82.6656 34.1435C82.3833 31.9837 81.4211 29.9774 79.9252 28.4293V28.4317Z" fill="#FE5CA7"/>
<path d="M79.9252 28.4317C79.6762 28.176 79.535 27.8303 79.5319 27.4689C79.5289 27.1075 79.6643 26.7594 79.909 26.4993C81.1961 25.113 82.0684 23.3774 82.4227 21.4983C82.7769 19.6192 82.5981 17.6753 81.9076 15.8972C81.217 14.1191 80.0435 12.5812 78.5264 11.466C77.0092 10.3508 75.212 9.70499 73.3477 9.60512C74.8797 11.4928 75.6838 13.8907 75.608 16.3451C75.5322 18.7996 74.5817 21.1405 72.9363 22.925C72.6916 23.1852 72.5562 23.5333 72.5593 23.8947C72.5623 24.256 72.7035 24.6018 72.9526 24.8575C74.4485 26.4056 75.4107 28.4119 75.693 30.5717C75.9753 32.7315 75.5622 34.9267 74.5167 36.8239C73.4711 38.7211 71.85 40.2166 69.8998 41.0832C67.9496 41.9498 65.7768 42.1402 63.7115 41.6254C63.3692 41.5379 63.0072 41.5915 62.703 41.7746C62.3989 41.9577 62.1768 42.2557 62.0845 42.6047C61.5169 44.718 60.2883 46.5818 58.5873 47.9098C56.8864 49.2378 54.8072 49.9566 52.6691 49.9557C52.4948 49.9557 52.3228 49.9557 52.1508 49.9414C53.2933 51.3443 54.7886 52.3997 56.4747 52.9931C58.1607 53.5865 59.973 53.6952 61.7151 53.3076C63.4571 52.9199 65.0624 52.0505 66.3567 50.7939C67.651 49.5372 68.5849 47.9412 69.0572 46.1789C69.1495 45.8299 69.3715 45.5319 69.6757 45.3488C69.9799 45.1657 70.3419 45.1122 70.6841 45.1996C72.7495 45.7144 74.9223 45.524 76.8725 44.6574C78.8227 43.7908 80.4437 42.2953 81.4893 40.3981C82.5349 38.5009 82.9479 36.3057 82.6656 34.1459C82.3833 31.9861 81.4211 29.9798 79.9252 28.4317Z" fill="#FE3D97"/>
<path d="M59.2932 32.1179C62.1557 32.1179 64.4762 29.7389 64.4762 26.8043C64.4762 23.8696 62.1557 21.4906 59.2932 21.4906C56.4307 21.4906 54.1102 23.8696 54.1102 26.8043C54.1102 29.7389 56.4307 32.1179 59.2932 32.1179Z" fill="#FEDF30"/>
</svg>
